# xmcd CD database file
#
# Track frame offsets:
#	150
#	15237
#	31688
#	56013
#	66519
#	90746
#	109123
#	121294
#	138491
#	150252
#	163100
#
# Disc length: 2428 seconds
#
# Revision: 0
# Processed by: cddbd v1.5.1PL0 Copyright (c) Steve Scherf et al.
# Submitted via: CDex 1.40Release
#
DISCID=85097a0b
DTITLE=Mark Erelli - Hillbilly Pilgrim
DYEAR=2002
DGENRE=Country
TTITLE0=Brand New Baby
TTITLE1=Troubadour Blues
TTITLE2=A Bend In The River
TTITLE3=Pretend
TTITLE4=The Farewell Ball
TTITLE5=Let's Make A Family
TTITLE6=Troubles (Those Lonesome Kind)
TTITLE7=My Best Was Just Not Good Enough (For You)
TTITLE8=Fool No. 1
TTITLE9=Ain't No Time Of Year To Be Alone
TTITLE10=Pilgrim Highway
EXTD=YEAR: 2002 ID3G: 2
EXTT0=
EXTT1=
EXTT2=
EXTT3=
EXTT4=
EXTT5=
EXTT6=
EXTT7=
EXTT8=
EXTT9=
EXTT10=
PLAYORDER=
